
<svg width="100" height="100" viewBox="0 0 100 100" fill="none" xmlns="http://www.w3.org/2000/svg">
  <path d="M84.375 69.5312L69.1406 84.7656C68.7891 85.1172 68.3594 85.3906 67.8906 85.5703C67.4219 85.75 66.9219 85.8359 66.4219 85.8359H16.4062C15.5469 85.8359 14.9219 85.5312 14.5312 84.9219C14.1406 84.3125 14.1406 83.625 14.5312 82.8594L29.7656 67.625C30.1172 67.2734 30.5469 67 31.0156 66.8203C31.4844 66.6406 31.9844 66.5547 32.4844 66.5547H82.5C83.3594 66.5547 83.9844 66.8594 84.375 67.4688C84.7656 68.0781 84.7656 68.7656 84.375 69.5312ZM69.1406 51.0938L84.375 35.8594C84.7656 35.0938 84.7656 34.4219 84.375 33.8125C83.9844 33.2031 83.3594 32.8984 82.5 32.8984H32.4844C31.9844 32.8984 31.4844 32.9844 31.0156 33.1641C30.5469 33.3438 30.1172 33.6172 29.7656 33.9688L14.5312 49.2031C14.1406 49.9688 14.1406 50.6562 14.5312 51.2656C14.9219 51.875 15.5469 52.1797 16.4062 52.1797H66.4219C66.9219 52.1797 67.4219 52.0938 67.8906 51.9141C68.3594 51.7344 68.7891 51.4453 69.1406 51.0938ZM16.4062 18.875H66.4219C66.9219 18.875 67.4219 18.9609 67.8906 19.1406C68.3594 19.3203 68.7891 19.5938 69.1406 19.9453L84.375 35.1797C84.7656 35.9453 84.7656 36.6328 84.375 37.2422C83.9844 37.8516 83.3594 38.1562 82.5 38.1562H32.4844C31.9844 38.1562 31.4844 38.0703 31.0156 37.8906C30.5469 37.7109 30.1172 37.4375 29.7656 37.0859L14.5312 21.8516C14.1406 21.0859 14.1406 20.3984 14.5312 19.7891C14.9219 19.1797 15.5469 18.875 16.4062 18.875Z" fill="#9945FF"/>
</svg>
